<svg id="Calque_1" data-name="Calque 1" xmlns="http://www.w3.org/2000/svg" viewBox="0 0 162.87 121.55"><defs><style>.cls-1{fill:#58519f;}.cls-2{fill:#f2f2f2;}</style></defs><path class="cls-1" d="M95.08,37.34a3.29,3.29,0,0,0-2.5,1.07A3.27,3.27,0,0,0,90.23,37a3.36,3.36,0,0,0-2.76,1.34A3.43,3.43,0,0,0,84.9,36.7a3.61,3.61,0,0,0-3.06,1.74,3.23,3.23,0,0,0-6-.26A3.66,3.66,0,0,0,73,36a3.77,3.77,0,0,0-3.3,2.09,3.77,3.77,0,0,0-3-2.49l.88-14a1.42,1.42,0,0,1,1.51-1.33l25.55,1.6A1.43,1.43,0,0,1,96,23.36Z"/><path class="cls-1" d="M91.18,42a3.27,3.27,0,0,0,2.44-1.23A3.24,3.24,0,0,0,96.05,42V55.75a1.43,1.43,0,0,1-1.43,1.42H69a1.43,1.43,0,0,1-1.42-1.42V42a3.75,3.75,0,0,0,3.15-2.3A3.77,3.77,0,0,0,73.91,42a3.64,3.64,0,0,0,3-2,3.24,3.24,0,0,0,6,.11A3.61,3.61,0,0,0,85.85,42a3.41,3.41,0,0,0,2.67-1.51A3.39,3.39,0,0,0,91.18,42Z"/><path class="cls-1" d="M20.3,101.19V70.67h3.83v13.5c1.31-2.61,4-4,7.27-4,5.71,0,9.14,4.49,9.14,10.65S37,101.19,31.15,101.19a7.46,7.46,0,0,1-7.1-4.12l-.28,4.12Zm10.16-3.47c3.91,0,6.24-2.94,6.24-7.06s-2.33-7-6.24-7-6.29,2.94-6.29,7S26.54,97.72,30.46,97.72Z"/><path class="cls-2" d="M43,73.34A2.67,2.67,0,1,1,45.68,76,2.66,2.66,0,0,1,43,73.34Zm.75,7.41H47.6v20.44H43.76Z"/><path class="cls-2" d="M52.21,101.19V70.67h3.84v30.52Z"/><path class="cls-2" d="M60.74,101.19V70.67h3.83v30.52Z"/><path class="cls-2" d="M71.23,94.9c0,2,1.55,3.27,4.08,3.27,2.69,0,4.24-1.1,4.24-2.94,0-1.35-.65-2.16-2.73-2.69l-3.51-.82c-3.55-.86-5.23-2.61-5.23-5.55,0-3.67,3.11-6,7.51-6s7.22,2.45,7.31,6.25H79.22c-.08-2-1.42-3.27-3.75-3.27s-3.75,1.06-3.75,2.9c0,1.35,1,2.24,2.93,2.73l3.51.86c3.39.82,5.06,2.37,5.06,5.35,0,3.79-3.26,6.2-8,6.2s-7.68-2.49-7.68-6.29Z"/><path class="cls-2" d="M85.14,90.79c0-6.12,3.55-10.61,9.47-10.61a7.65,7.65,0,0,1,7,3.79V70.67h3.79v30.52H102l-.32-4.12c-1.31,2.73-4,4.12-7.18,4.12C88.65,101.19,85.14,96.87,85.14,90.79Zm16.41-.13c0-4.08-2.41-7-6.33-7s-6.2,2.93-6.2,7,2.28,7.06,6.2,7.06S101.55,94.83,101.55,90.66Z"/><path class="cls-2" d="M108.61,90.74c0-6.24,4-10.57,9.75-10.57s9.38,3.92,9.38,9.84v1.43l-15.42,0c.29,4.2,2.49,6.52,6.28,6.52,3,0,4.94-1.22,5.59-3.5h3.6c-1,4.28-4.33,6.69-9.27,6.69C112.65,101.19,108.61,96.94,108.61,90.74Zm3.79-1.83h11.51a5.19,5.19,0,0,0-5.55-5.51C115,83.4,112.89,85.4,112.4,88.91Z"/><path class="cls-2" d="M142.44,84.09h-1.72c-3.63,0-5.87,2.2-5.87,6v11.06H131V80.79h3.59l.25,3a5.62,5.62,0,0,1,5.55-3.47,9.49,9.49,0,0,1,2,.24Z"/></svg>