<svg id="Calque_1" data-name="Calque 1" xmlns="http://www.w3.org/2000/svg" viewBox="0 0 193.82 71.02"><defs><style>.cls-1{fill:#58519f;}.cls-2{fill:#1e1e1e;}</style></defs><path class="cls-1" d="M43.76,33.66a2.79,2.79,0,0,0-2.14.92,2.81,2.81,0,0,0-2-1.18,2.88,2.88,0,0,0-2.36,1.15,2.92,2.92,0,0,0-2.2-1.44,3.06,3.06,0,0,0-2.62,1.5A3.09,3.09,0,0,0,30,32.79a3.14,3.14,0,0,0-2.69,1.59,3.14,3.14,0,0,0-2.47-1.92A3.23,3.23,0,0,0,22,34.27a3.24,3.24,0,0,0-2.57-2.15L20.21,20a1.23,1.23,0,0,1,1.29-1.15l21.87,1.39a1.21,1.21,0,0,1,1.14,1.3Z"/><path class="cls-1" d="M40.43,37.67a2.77,2.77,0,0,0,2.08-1.06,2.77,2.77,0,0,0,2.08,1.06V49.55a1.22,1.22,0,0,1-1.22,1.23H21.46a1.22,1.22,0,0,1-1.22-1.23V37.67a3.21,3.21,0,0,0,2.7-2,3.21,3.21,0,0,0,2.7,2,3.13,3.13,0,0,0,2.59-1.76,3.11,3.11,0,0,0,2.58,1.76A3.09,3.09,0,0,0,33.34,36a3.06,3.06,0,0,0,2.52,1.66,2.91,2.91,0,0,0,2.29-1.3A2.89,2.89,0,0,0,40.43,37.67Z"/><path class="cls-1" d="M51.43,50.78V20.26h3.84v13.5c1.31-2.61,4-4,7.26-4,5.72,0,9.14,4.48,9.14,10.65s-3.59,10.36-9.38,10.36a7.45,7.45,0,0,1-7.1-4.12l-.29,4.12Zm10.16-3.47c3.92,0,6.25-2.94,6.25-7.06s-2.33-7-6.25-7-6.28,2.94-6.28,7S57.68,47.31,61.59,47.31Z"/><path class="cls-2" d="M74.14,22.93a2.68,2.68,0,1,1,2.68,2.67A2.66,2.66,0,0,1,74.14,22.93Zm.76,7.41h3.83V50.78H74.9Z"/><path class="cls-2" d="M83.35,50.78V20.26h3.83V50.78Z"/><path class="cls-2" d="M91.88,50.78V20.26h3.83V50.78Z"/><path class="cls-2" d="M102.36,44.5c0,2,1.55,3.26,4.08,3.26,2.7,0,4.25-1.1,4.25-2.94,0-1.34-.66-2.16-2.74-2.69l-3.51-.82c-3.55-.85-5.22-2.61-5.22-5.55,0-3.67,3.1-6,7.51-6S114,32.21,114,36h-3.67c-.08-2-1.43-3.27-3.75-3.27s-3.76,1.07-3.76,2.9c0,1.35,1,2.25,2.94,2.74l3.51.85c3.39.82,5.06,2.37,5.06,5.35,0,3.79-3.27,6.2-8,6.2s-7.67-2.49-7.67-6.28Z"/><path class="cls-2" d="M116.28,40.38c0-6.12,3.55-10.61,9.47-10.61a7.63,7.63,0,0,1,7,3.79V20.26h3.8V50.78h-3.44l-.32-4.12c-1.3,2.74-4,4.12-7.18,4.12C119.79,50.78,116.28,46.46,116.28,40.38Zm16.4-.12c0-4.08-2.41-7-6.32-7s-6.2,2.94-6.2,7,2.28,7.05,6.2,7.05S132.68,44.42,132.68,40.26Z"/><path class="cls-2" d="M139.74,40.33c0-6.24,4-10.56,9.76-10.56s9.38,3.91,9.38,9.83V41l-15.42,0c.28,4.2,2.49,6.53,6.28,6.53,3,0,4.94-1.23,5.59-3.51h3.59c-1,4.28-4.32,6.69-9.26,6.69C143.78,50.78,139.74,46.54,139.74,40.33Zm3.8-1.83h11.51A5.2,5.2,0,0,0,149.5,33C146.15,33,144,35,143.54,38.5Z"/><path class="cls-2" d="M173.57,33.68h-1.71c-3.63,0-5.88,2.21-5.88,6V50.78h-3.83V30.38h3.59l.24,3a5.65,5.65,0,0,1,5.55-3.47,9.35,9.35,0,0,1,2,.24Z"/></svg>