<svg id="Calque_1" data-name="Calque 1" xmlns="http://www.w3.org/2000/svg" viewBox="0 0 92.05 105.82"><defs><style>.cls-1{fill:#a8a7d1;}</style></defs><path class="cls-1" d="M70.05,50.59a5.68,5.68,0,0,0-4.38,1.89,5.79,5.79,0,0,0-4.12-2.43,6,6,0,0,0-4.83,2.37,6,6,0,0,0-4.5-3c-2-.13-4,1.07-5.37,3.07-1.17-2.17-2.92-3.59-5-3.72S37.83,50,36.4,52.07c-1.17-2.28-3-3.8-5.06-3.93s-4.33,1.32-5.78,3.7c-1.14-2.55-3-4.26-5.27-4.4l1.54-24.72a2.51,2.51,0,0,1,2.65-2.36l44.78,2.83a2.52,2.52,0,0,1,2.33,2.68Z"/><path class="cls-1" d="M63.22,58.8a5.73,5.73,0,0,0,4.27-2.16,5.71,5.71,0,0,0,4.26,2.16V83.13a2.51,2.51,0,0,1-2.5,2.52H24.39a2.51,2.51,0,0,1-2.5-2.52V58.8c2.24,0,4.23-1.58,5.53-4,1.3,2.47,3.29,4,5.54,4s4-1.39,5.29-3.6c1.3,2.21,3.18,3.6,5.29,3.6s3.87-1.31,5.17-3.4c1.29,2.09,3.12,3.4,5.17,3.4a5.94,5.94,0,0,0,4.67-2.66A5.94,5.94,0,0,0,63.22,58.8Z"/></svg>