<?xml version="1.0" encoding="utf-8"?>
<!-- Generator: Adobe Illustrator 25.0.1, SVG Export Plug-In . SVG Version: 6.00 Build 0)  -->
<svg version="1.1" id="Calque_1" xmlns="http://www.w3.org/2000/svg" xmlns:xlink="http://www.w3.org/1999/xlink" x="0px" y="0px"
	 viewBox="0 0 364 358" style="enable-background:new 0 0 364 358;" xml:space="preserve">
<style type="text/css">
	.st0{fill:none;stroke:#575757;stroke-miterlimit:10;}
	.st1{fill:#575757;}
	.st2{fill:#1A1A1A;}
	.st3{fill:#FFFFFF;}
	.st4{fill:#CFCFCF;}
	.st5{fill:#EBEDEB;}
	.st6{opacity:0.35;}
	.st7{fill:#B6B7B6;}
	.st8{fill:#00B579;}
	.st9{fill:#525252;}
	.st10{fill:#ECECEC;}
</style>
<g>
	<g>
		<g>
			<g>
				<g>
					<path class="st8" d="M159.3,129.3H151c10.3,2.4,18.1,13.4,18.1,26.6c0,13.1-7.7,24.1-18,26.6h8.3c10.3-2.5,18-13.4,18-26.6
						C177.4,142.7,169.6,131.7,159.3,129.3z"/>
				</g>
				<g>
					<path class="st8" d="M195,155.9c0-13.1,7.7-24.1,17.9-26.6h-8.3c-10.2,2.5-17.9,13.4-17.9,26.6c0,13.2,7.8,24.2,18,26.6h8.3
						C202.8,180.1,195,169.1,195,155.9z"/>
				</g>
			</g>
		</g>
		<g>
			<g>
				<path class="st8" d="M214.9,196.5C214.9,196.5,214.9,196.5,214.9,196.5l-66.1-0.2c-4.1,0-7.4-3.4-7.4-7.5l0.2-66.1
					c0-4.1,3.4-7.4,7.5-7.4c0,0,0,0,0,0l66.1,0.2c4.1,0,7.4,3.4,7.4,7.5l-0.2,66.1c0,2-0.8,3.9-2.2,5.3
					C218.8,195.7,216.9,196.5,214.9,196.5z M149.1,117.1c-3.1,0-5.6,2.5-5.7,5.6l-0.2,66.1c0,3.1,2.5,5.7,5.6,5.7l66.1,0.2
					c0,0,0,0,0,0c1.5,0,2.9-0.6,4-1.6c1.1-1.1,1.7-2.5,1.7-4l0.2-66.1c0-3.1-2.5-5.7-5.6-5.7L149.1,117.1
					C149.1,117.1,149.1,117.1,149.1,117.1z"/>
			</g>
		</g>
	</g>
	<g>
		<g>
			<g>
				<g>
					<path class="st3" d="M131.1,236.1v-14.5c0-4.2,2.1-6.6,6.2-6.6c4.1,0,6.2,2.5,6.2,6.6v2.8h-4v-3.1c0-1.8-0.8-2.5-2.1-2.5
						c-1.3,0-2.1,0.7-2.1,2.5v15c0,1.8,0.8,2.5,2.1,2.5c1.3,0,2.1-0.7,2.1-2.5v-4.1h4v3.8c0,4.2-2.1,6.6-6.2,6.6
						C133.3,242.7,131.1,240.2,131.1,236.1z"/>
					<path class="st3" d="M145.8,235.9v-14.2c0-4.3,2.3-6.8,6.4-6.8c4.1,0,6.4,2.5,6.4,6.8v14.2c0,4.3-2.3,6.8-6.4,6.8
						C148.1,242.7,145.8,240.2,145.8,235.9z M154.4,236.2v-14.7c0-1.9-0.8-2.7-2.2-2.7c-1.3,0-2.2,0.7-2.2,2.7v14.7
						c0,1.9,0.8,2.7,2.2,2.7C153.6,238.9,154.4,238.1,154.4,236.2z"/>
					<path class="st3" d="M161.5,215h6.4c4.2,0,6.3,2.4,6.3,6.8v14c0,4.4-2.1,6.8-6.3,6.8h-6.4V215z M167.8,238.8
						c1.3,0,2.1-0.7,2.1-2.7v-14.4c0-2-0.8-2.7-2.1-2.7h-2.1v19.8H167.8z"/>
					<path class="st3" d="M177,215h11.5v4h-7.3v7.3h5.8v4h-5.8v8.5h7.3v4H177V215z"/>
					<path class="st3" d="M190.9,215h6.4c4.4,0,6.2,2.1,6.2,6.4v1.1c0,2.8-0.8,4.6-2.7,5.4v0.1c2.3,0.8,3.1,2.8,3.1,5.8v2.4
						c0,4.3-2.2,6.6-6.4,6.6h-6.6V215z M196.8,226.3c1.6,0,2.5-0.7,2.5-2.9v-1.5c0-2-0.7-2.8-2.1-2.8h-2v7.3H196.8z M197.5,238.8
						c1.4,0,2.2-0.7,2.2-2.7v-2.4c0-2.6-0.8-3.4-2.7-3.4h-1.9v8.5H197.5z"/>
					<path class="st3" d="M209.7,230.9l-5.1-15.9h4.5l2.9,10.2h0.1l2.9-10.2h4.1l-5.1,15.9v11.8h-4.2V230.9z"/>
					<path class="st3" d="M220.7,235.8V215h4.2v21.2c0,2,0.8,2.7,2.1,2.7c1.3,0,2.1-0.7,2.1-2.7V215h4.1v20.8c0,4.4-2.1,6.9-6.3,6.9
						C222.9,242.7,220.7,240.2,220.7,235.8z"/>
					<path class="st3" d="M235.6,235.9v-1.5h4v1.8c0,1.9,0.8,2.6,2.2,2.6c1.3,0,2.2-0.7,2.2-2.7c0-2.2-0.8-3.7-3.6-6.1
						c-3.5-3.1-4.7-5.3-4.7-8.4c0-4.2,2.2-6.7,6.3-6.7c4.1,0,6.1,2.5,6.1,6.8v1.1h-4v-1.4c0-1.9-0.8-2.7-2.1-2.7
						c-1.3,0-2.1,0.7-2.1,2.6c0,2,0.9,3.4,3.6,5.8c3.5,3.1,4.6,5.3,4.6,8.6c0,4.4-2.2,6.8-6.4,6.8
						C237.6,242.7,235.6,240.2,235.6,235.9z"/>
				</g>
			</g>
			<path class="st3" d="M115.9,235.8V215h4.2v21.2c0,2,0.8,2.7,2.1,2.7c1.3,0,2.1-0.7,2.1-2.7V215h4.1v20.8c0,4.4-2.1,6.9-6.3,6.9
				C118,242.7,115.9,240.2,115.9,235.8z"/>
		</g>
	</g>
</g>
</svg>
