<?xml version="1.0" encoding="utf-8"?>
<!-- Generator: Adobe Illustrator 25.0.1, SVG Export Plug-In . SVG Version: 6.00 Build 0)  -->
<svg version="1.1" id="Calque_1" xmlns="http://www.w3.org/2000/svg" xmlns:xlink="http://www.w3.org/1999/xlink" x="0px" y="0px"
	 viewBox="0 0 463 307" style="enable-background:new 0 0 463 307;" xml:space="preserve">
<style type="text/css">
	.st0{fill:none;stroke:#575757;stroke-miterlimit:10;}
	.st1{fill:#575757;}
	.st2{fill:#1A1A1A;}
	.st3{fill:#FFFFFF;}
	.st4{fill:#CFCFCF;}
	.st5{fill:#EBEDEB;}
	.st6{opacity:0.35;}
	.st7{fill:#B6B7B6;}
	.st8{fill:#00B579;}
	.st9{fill:#525252;}
	.st10{fill:#ECECEC;}
</style>
<g>
	<g>
		<g>
			<g>
				<path class="st2" d="M230.4,160.2v-14.5c0-4.2,2.2-6.6,6.2-6.6c4.1,0,6.2,2.5,6.2,6.6v2.9h-4v-3.1c0-1.8-0.8-2.5-2.1-2.5
					c-1.3,0-2.1,0.7-2.1,2.5v15.1c0,1.8,0.8,2.5,2.1,2.5c1.3,0,2.1-0.7,2.1-2.5v-4.1h4v3.8c0,4.2-2.2,6.6-6.2,6.6
					C232.5,166.9,230.4,164.4,230.4,160.2z"/>
				<path class="st2" d="M245.1,160.1v-14.2c0-4.3,2.3-6.8,6.4-6.8c4.1,0,6.4,2.5,6.4,6.8v14.2c0,4.3-2.3,6.8-6.4,6.8
					C247.4,166.9,245.1,164.4,245.1,160.1z M253.7,160.4v-14.7c0-1.9-0.8-2.7-2.2-2.7c-1.3,0-2.2,0.7-2.2,2.7v14.7
					c0,1.9,0.8,2.7,2.2,2.7C252.9,163,253.7,162.3,253.7,160.4z"/>
				<path class="st2" d="M260.8,139.1h6.5c4.2,0,6.3,2.4,6.3,6.9v14c0,4.4-2.1,6.9-6.3,6.9h-6.5V139.1z M267.2,162.9
					c1.3,0,2.2-0.7,2.2-2.7v-14.4c0-2-0.8-2.7-2.2-2.7H265v19.8H267.2z"/>
				<path class="st2" d="M276.4,139.1h11.5v4h-7.3v7.3h5.8v4h-5.8v8.5h7.3v4h-11.5V139.1z"/>
				<path class="st2" d="M290.3,139.1h6.4c4.4,0,6.3,2.1,6.3,6.4v1.1c0,2.9-0.8,4.6-2.7,5.4v0.1c2.3,0.8,3.1,2.9,3.1,5.8v2.4
					c0,4.3-2.2,6.6-6.4,6.6h-6.6V139.1z M296.2,150.4c1.6,0,2.5-0.7,2.5-2.9v-1.5c0-2-0.7-2.9-2.2-2.9h-2v7.3H296.2z M297,162.9
					c1.4,0,2.2-0.7,2.2-2.7v-2.4c0-2.6-0.8-3.4-2.7-3.4h-1.9v8.5H297z"/>
				<path class="st2" d="M309.1,155.1l-5.1-15.9h4.5l2.9,10.2h0.1l2.9-10.2h4.1l-5.1,15.9v11.8h-4.2V155.1z"/>
				<path class="st2" d="M320.2,160v-20.9h4.2v21.2c0,2,0.8,2.7,2.2,2.7c1.3,0,2.2-0.7,2.2-2.7v-21.2h4.1V160c0,4.4-2.2,6.9-6.3,6.9
					C322.3,166.9,320.2,164.4,320.2,160z"/>
				<path class="st2" d="M335,160.1v-1.5h4v1.9c0,1.9,0.8,2.6,2.2,2.6c1.3,0,2.2-0.7,2.2-2.7c0-2.2-0.8-3.7-3.6-6.1
					c-3.5-3.1-4.7-5.3-4.7-8.4c0-4.2,2.2-6.7,6.3-6.7c4.1,0,6.1,2.5,6.1,6.8v1.1h-4v-1.4c0-1.9-0.8-2.7-2.1-2.7s-2.1,0.7-2.1,2.6
					c0,2,0.9,3.4,3.6,5.8c3.5,3.1,4.6,5.3,4.6,8.6c0,4.4-2.2,6.9-6.4,6.9C337.1,166.9,335,164.4,335,160.1z"/>
			</g>
		</g>
		<path class="st2" d="M215.1,160v-20.9h4.2v21.2c0,2,0.8,2.7,2.2,2.7s2.2-0.7,2.2-2.7v-21.2h4.1V160c0,4.4-2.2,6.9-6.3,6.9
			S215.1,164.4,215.1,160z"/>
	</g>
	<g>
		<g>
			<g>
				<g>
					<path class="st2" d="M132.3,126.4H124c10.3,2.4,18.1,13.4,18.1,26.7c0,13.2-7.8,24.2-18.1,26.6h8.3
						c10.3-2.5,18.1-13.5,18.1-26.6C150.4,139.8,142.6,128.8,132.3,126.4z"/>
				</g>
				<g>
					<path class="st2" d="M168.1,153c0-13.2,7.7-24.2,18-26.6h-8.3c-10.3,2.5-18,13.5-18,26.6c0,13.2,7.8,24.2,18.1,26.7h8.3
						C175.9,177.2,168.1,166.2,168.1,153z"/>
				</g>
			</g>
		</g>
		<g>
			<g>
				<path class="st2" d="M188.1,193.7C188.1,193.7,188,193.7,188.1,193.7l-66.3-0.2c-4.1,0-7.5-3.4-7.4-7.5l0.2-66.2
					c0-4.1,3.4-7.4,7.5-7.4c0,0,0,0,0,0l66.2,0.2c4.1,0,7.5,3.4,7.4,7.5l-0.2,66.2c0,2-0.8,3.9-2.2,5.3
					C191.9,192.9,190,193.7,188.1,193.7z M122.1,114.1c-3.1,0-5.7,2.5-5.7,5.7l-0.2,66.2c0,3.1,2.5,5.7,5.7,5.7l66.2,0.2
					c0,0,0,0,0,0c1.5,0,2.9-0.6,4-1.7c1.1-1.1,1.7-2.5,1.7-4L194,120c0-3.1-2.5-5.7-5.7-5.7L122.1,114.1
					C122.1,114.1,122.1,114.1,122.1,114.1z"/>
			</g>
		</g>
	</g>
</g>
</svg>
