<?xml version="1.0" encoding="utf-8"?>
<!-- Generator: Adobe Illustrator 27.5.0, SVG Export Plug-In . SVG Version: 6.00 Build 0)  -->
<svg version="1.1" id="Calque_1" xmlns="http://www.w3.org/2000/svg" xmlns:xlink="http://www.w3.org/1999/xlink" x="0px" y="0px"
	 viewBox="0 0 92.1 105.8" style="enable-background:new 0 0 92.1 105.8;" xml:space="preserve">
<style type="text/css">
	.st0{fill:#58519F;}
	.st1{fill:#FFFFFF;}
</style>
<g>
	<g>
		<path class="st0" d="M70.5,50.8c-1.2,0-2.4,0.5-3.2,1.4c-0.7-1-1.8-1.6-3-1.8c-1.4,0-2.7,0.6-3.5,1.7c-0.7-1.2-1.9-2-3.2-2.2
			c-1.4-0.1-2.9,0.8-3.9,2.2c-0.8-1.6-2.1-2.6-3.6-2.7c-1.5-0.1-2.9,0.9-3.9,2.4c-0.8-1.6-2.2-2.7-3.6-2.8c-1.5-0.1-3.1,1-4.2,2.7
			c-0.8-1.8-2.2-3.1-3.8-3.2l1.1-17.8c0.1-1,0.9-1.8,1.9-1.7l32.3,2c1,0.1,1.7,0.9,1.7,1.9L70.5,50.8z"/>
		<path class="st0" d="M65.6,56.8c1.2,0,2.3-0.6,3.1-1.6c0.7,0.9,1.9,1.5,3.1,1.6v17.5c0,1-0.8,1.8-1.8,1.8c0,0,0,0,0,0H37.6
			c-1,0-1.8-0.8-1.8-1.8c0,0,0,0,0,0V56.8c1.6,0,3-1.1,4-2.9c0.9,1.8,2.4,2.9,4,2.9s2.9-1,3.8-2.6c0.9,1.6,2.3,2.6,3.8,2.6
			c1.5,0,2.8-0.9,3.7-2.4c0.9,1.5,2.2,2.4,3.7,2.4c1.4-0.1,2.6-0.8,3.4-1.9C63,56,64.2,56.7,65.6,56.8z"/>
	</g>
	<g id="y3UrM0.tif_00000134941120828916423930000013025326799627628720_">
		<g>
			<path class="st0" d="M77.3,82c-0.2,0.3-0.4,0.5-0.6,0.7c-0.6,0.6-1.2,1.1-1.7,1.6c-0.4,0.4-0.9,0.8-1.3,1.2
				c-0.4,0.4-0.8,0.7-1.2,1.1c-0.4,0.4-0.9,0.8-1.3,1.3c-0.2,0.2-0.5,0.4-0.7,0.6c0,0,0,0.1-0.1,0.1h-0.7c0,0,0-0.1-0.1-0.1
				c-0.5-0.5-0.9-1-1.4-1.5c-0.2-0.2-0.4-0.5-0.7-0.7c-0.3-0.3-0.5-0.6-0.7-0.9c-0.2-0.3-0.4-0.5-0.6-0.8c-0.3-0.3-0.5-0.7-0.7-1
				c-0.3-0.4-0.6-0.8-0.9-1.2c-0.3-0.4-0.6-0.8-0.9-1.2c-0.3-0.4-0.6-0.9-1-1.3c-0.1-0.2-0.3-0.3-0.4-0.5c-0.1-0.2-0.2-0.2-0.4-0.3
				c-0.4-0.3-0.9-0.6-1.3-0.9c-0.4-0.3-0.8-0.5-1.2-0.8c-0.6-0.4-1.1-0.8-1.7-1.2c-0.3-0.2-0.7-0.5-1-0.7c-0.2-0.1-0.3-0.2-0.5-0.3
				c0.1,0,0.1,0,0.2,0c0.3,0,0.5,0,0.8,0.1c0.3,0,0.6,0,0.9,0.1c0.2,0,0.4,0,0.6,0c0.4,0,0.8,0.1,1.2,0.1c0.3,0,0.6,0,0.9,0.1
				c0.3,0,0.6,0,0.8,0.1c0.2,0,0.4,0,0.6,0c0.3,0,0.6,0,0.9,0.1c0.2,0,0.4,0,0.7,0c0.1,0,0.2,0,0.3,0c0.2,0,0.3,0.1,0.4,0.2
				c0.4,0.3,0.8,0.7,1.2,1c0.4,0.4,0.7,0.8,1,1.2c0.4,0.5,0.8,1,1.2,1.5c0.5,0.6,1,1.3,1.4,1.9c0.2,0.3,0.4,0.5,0.6,0.7
				c0.1,0.1,0.1,0.2,0.2,0.3c0.1,0.1,0.2,0.1,0.3,0.1c0.7-0.3,1.4-0.6,2.1-0.9c0.4-0.2,0.8-0.3,1.2-0.5c0.3-0.1,0.7-0.3,1-0.4
				c0.3-0.1,0.5-0.2,0.8-0.3c0.3-0.1,0.6-0.1,0.9-0.1c0.4,0,0.9,0.3,1,0.7C77.5,81.4,77.5,81.7,77.3,82z"/>
			<path class="st0" d="M46.9,74.6c-0.2,0.2-0.4,0.4-0.6,0.6c-1.2,1.2-2.5,2.5-3.7,3.7c-0.4,0.4-0.8,0.9-1.3,1.3
				c-0.3,0.4-0.7,0.7-1.1,1c-0.3,0.3-0.7,0.6-1,0.9c-0.3,0.3-0.6,0.4-1,0.5c-0.3,0.1-0.6,0.1-0.9,0c-0.4-0.1-0.8-0.2-1.1-0.4
				c-0.2-0.1-0.4-0.1-0.7-0.2c-0.4-0.1-0.7-0.3-1.1-0.4c-0.5-0.2-0.9-0.4-1.4-0.6c-0.7-0.3-1.5-0.6-2.2-1c-0.4-0.2-0.8-0.4-1.2-0.6
				c-0.1-0.1-0.2,0-0.3,0.1c-0.3,0.3-0.6,0.6-1,0.9c-0.5,0.4-1,0.8-1.6,1.2c-0.4,0.3-0.8,0.5-1.2,0.7c-0.3,0.2-0.6,0.3-0.9,0.4
				c-0.5,0.1-0.8-0.1-1.1-0.5c-0.1-0.2-0.2-0.4-0.2-0.7c0-0.2,0.1-0.3,0.1-0.4c0.2-0.5,0.5-1,0.7-1.5c0.2-0.3,0.3-0.6,0.5-0.8
				c0.2-0.3,0.4-0.6,0.5-0.9c0.2-0.4,0.5-0.9,0.7-1.3c0.2-0.4,0.4-0.7,0.6-1.1c0.1-0.3,0.3-0.5,0.4-0.8c0.1-0.2,0.3-0.5,0.4-0.7
				c0.1-0.1,0.2-0.2,0.3-0.3c0.2-0.2,0.5-0.2,0.8-0.1c0.5,0.2,1,0.4,1.5,0.7c0.5,0.2,1,0.5,1.5,0.7c0.4,0.2,0.9,0.4,1.3,0.6
				c0.4,0.2,0.8,0.4,1.1,0.5c0.5,0.2,0.9,0.4,1.4,0.6c0.4,0.2,0.8,0.3,1.2,0.4c0.2,0.1,0.4,0.1,0.6,0.1c0.1,0,0.2,0,0.3-0.1
				c0.2-0.2,0.4-0.4,0.5-0.5c0.5-0.5,1-1.1,1.6-1.6c0.3-0.3,0.5-0.5,0.8-0.8c0.1-0.1,0.1-0.2,0.2-0.3c0,0,0-0.1,0.1-0.1
				c0.4,0,0.8,0.1,1.1,0.1c0.3,0,0.6,0,0.9,0.1c0.3,0,0.6,0,0.9,0.1c0.3,0,0.6,0,0.9,0.1c0.3,0,0.6,0,0.9,0.1c0.2,0,0.4,0,0.6,0
				c0.3,0,0.6,0,0.9,0.1C46.7,74.6,46.8,74.5,46.9,74.6C46.9,74.6,46.9,74.6,46.9,74.6z"/>
		</g>
	</g>
	<ellipse class="st0" cx="48.3" cy="88.7" rx="31.5" ry="0.7"/>
	<ellipse class="st0" cx="22.6" cy="47.2" rx="11.5" ry="0.8"/>
	<ellipse class="st0" cx="19.1" cy="53.1" rx="11.5" ry="0.8"/>
	<ellipse class="st0" cx="22.6" cy="58.9" rx="11.5" ry="0.8"/>
</g>
</svg>
