<?xml version="1.0" encoding="utf-8"?>
<!-- Generator: Adobe Illustrator 27.5.0, SVG Export Plug-In . SVG Version: 6.00 Build 0)  -->
<svg version="1.1" id="Calque_1" xmlns="http://www.w3.org/2000/svg" xmlns:xlink="http://www.w3.org/1999/xlink" x="0px" y="0px"
	 viewBox="0 0 92.1 105.8" style="enable-background:new 0 0 92.1 105.8;" xml:space="preserve">
<style type="text/css">
	.st0{fill:#58519F;}
	.st1{fill:#00B37D;}
	.st2{fill:#FFFFFF;}
	.st3{fill:#A8A7D1;}
</style>
<g>
	<path class="st0" d="M62.7,64.6c-1.2,0-2.4,0.5-3.3,1.4c-0.7-1-1.8-1.7-3.1-1.8c-1.4,0-2.7,0.6-3.6,1.8c-0.7-1.2-1.9-2.1-3.3-2.2
		c-1.5-0.1-3,0.8-4,2.3c-0.9-1.6-2.2-2.7-3.7-2.8c-1.5-0.1-3,0.9-4,2.4c-0.9-1.7-2.2-2.8-3.8-2.9c-1.5-0.1-3.2,1-4.3,2.7
		c-0.8-1.9-2.2-3.2-3.9-3.3l1.1-18.4c0.1-1,0.9-1.8,2-1.8l33.2,2.1c1,0.1,1.8,1,1.7,2L62.7,64.6z"/>
	<path class="st0" d="M57.6,70.7c1.2,0,2.4-0.6,3.2-1.6c0.8,1,1.9,1.6,3.2,1.6v18.1c0,1-0.8,1.9-1.9,1.9c0,0,0,0,0,0H28.8
		c-1,0-1.9-0.8-1.9-1.9c0,0,0,0,0,0V70.7c1.7,0,3.1-1.2,4.1-3c1,1.8,2.4,3,4.1,3s3-1,3.9-2.7c1,1.6,2.4,2.7,3.9,2.7
		c1.6,0,2.9-1,3.8-2.5c1,1.6,2.3,2.5,3.8,2.5c1.4-0.1,2.7-0.8,3.5-2C55,69.9,56.2,70.6,57.6,70.7z"/>
	<g>
		<path class="st0" d="M47.6,42.1c-5.8-0.8-10.6-2.2-11.9-3.5c-0.1,0.1-0.2,0.1-0.3,0.2c0.6,1.4,5.7,3,12.1,3.8
			c6.9,0.9,12.6,0.5,12.8-1c0-0.1,0-0.2,0-0.3C59.6,42.6,54.1,43,47.6,42.1z"/>
		<path class="st0" d="M68.2,25.9c0.1,0,0.3,0.1,0.5,0.2c0.1,0,0.2,0.1,0.2,0.1c0,0,0,0,0,0l0,0l0,0c0,0,0.1,0.1,0.1,0.1
			c0.2,0.3,0.3,0.7,0.3,0.9c0,0.1,0,0.3,0,0.3c0,0,0,0.1,0,0.1c0,1.3-0.4,3.3-0.5,4c0.4,0.2,0.6,0.6,0.6,1.2l5.5-0.4
			c0,0,0.1-0.6-3.9-4c-0.3-0.3-0.7-0.6-1.1-0.9c0,0,0,0,0,0c0-0.1-0.1-0.2-0.1-0.4c0-0.2-0.1-0.3-0.2-0.5c-0.1-0.2-0.2-0.4-0.4-0.5
			c0,0-0.1-0.1-0.1-0.1l0,0c0,0,0,0,0,0c0,0,0,0-0.1,0c-0.1-0.1-0.2-0.1-0.3-0.1C68.5,25.9,68.3,25.8,68.2,25.9
			c-0.3-0.1-0.5-0.1-0.5-0.1S67.9,25.8,68.2,25.9z"/>
		<path class="st0" d="M68.2,31.8c0,0,0.1,0,0.1,0c0.1-0.9,0.6-3.8,0.5-4.5c0-0.3-0.2-0.5-0.3-0.7c-4.9-3.6-12.6-8.6-12.6-8.6
			s-3.1,1.1-10.7,2.2c-7.6,1.1-23.8,2.8-23.8,2.8c3,3.1,13.6,8.6,13.6,8.6s0.1-2.7,0.4-3.9c0.3-1.2,2.3-2.5,5.1-3
			c2.7-0.5,9.5-1.8,16,0.3c4.9,1.5,7,5.6,7,5.6l-0.6,3l4.3-0.3C67.3,32.5,67.6,32,68.2,31.8z M55.7,19.3l0.1-0.6l11.7,7.8L55.7,19.3
			z"/>
		<path class="st0" d="M68.6,32.8c0,0,0,0.2,0,0.7c0,0.3,0,0.8-0.1,1.3c0,0,0.1,0,0.1,0c0.1,0,0.6,0.3,0.6,0.4
			c0-0.1,0.1-0.2,0.1-0.3c0.2-1,0.1-3-1.1-2.4c-1,0.4-1,1.7-1,2.6c0.2-0.2,0.5-0.2,0.8-0.2c0.1,0,0.3,0,0.4,0c0.1-0.5,0.1-1,0.2-1.3
			C68.6,33,68.6,32.8,68.6,32.8z"/>
		<path class="st0" d="M68.4,36.9c0.4,0.2,0.6,0.4,0.6,0.4l0.1-1.7c0,0-0.2-0.2-0.6-0.4c0,0,0,0,0,0C68.5,35.8,68.4,36.3,68.4,36.9z
			"/>
		<path class="st0" d="M68.3,35.1c-0.4-0.1-0.8-0.1-1.2,0.3L66.9,37c0,0,0.7-0.2,1.2-0.1C68.2,36.3,68.2,35.7,68.3,35.1
			C68.3,35.2,68.3,35.2,68.3,35.1z"/>
		<path class="st0" d="M68.6,39.8c0-0.4,0.4-1.5,0.2-1.9c0,0-0.2-0.3-0.5-0.6c0,0.1,0,0.2,0,0.4c0,0.5-0.1,0.9-0.1,1.4
			c0,0.5-0.1,1-0.1,1.5c0,0.5-0.1,1-0.1,1.5c0,0.5-0.1,1-0.2,1.4c-0.1,0.9-0.2,1.8-0.3,2.5c-0.1,0.7-0.2,1.3-0.2,1.8
			c-0.1,0.4-0.1,0.7-0.1,0.7s0-0.2,0-0.7c0-0.4,0-1,0.1-1.8c0-0.7,0.1-1.6,0.2-2.5c0-0.5,0.1-0.9,0.1-1.4c0-0.5,0.1-1,0.1-1.5
			c0-0.5,0.1-1,0.1-1.5c0.1-0.5,0.1-1,0.2-1.4c0-0.2,0-0.3,0.1-0.5c-0.3-0.1-0.7,0-1.3,0.3c-0.2,0.1-0.2,1.7-0.2,1.9
			c-0.2,1.5-0.3,3.1-0.5,4.6c-0.1,1.4-0.3,2.9-0.5,4.3c-0.1,0.6-0.2,1.2,0,1.7c0.1,0.3,0.2,0.5,0.3,0.7c0.5,1.2,0.5,2.5,0.4,3.7
			c1.4-3.2,1.5-6.9,1.9-10.4C68.3,42.7,68.5,41.2,68.6,39.8z"/>
		<path class="st0" d="M61.3,29.1c-0.4,2.1-1.8,9.4-1.8,9.7c0,0.3,0.6-8.4,0.8-10.6c-1.4-1.2-3.5-2.5-6.1-3c-5.4-1.2-9.8-0.2-12.5,0
			c-2.7,0.2-4.8,1.3-5.3,2c-0.5,0.7-0.6,2.2-0.6,2.2l-0.4,9.1c0,0,1.1-1.4,6-1.2c4.8,0.2,9.6,3.9,9.6,3.9S51,40.8,54,40
			c2.9-0.8,6.6,0.5,6.6,0.5l2-9.9C62.6,30.5,62.2,29.9,61.3,29.1z M38.4,27.1c-1,0.9-1.6,1.6-1.8,4c0,0,0.1-2.8,0.4-3.4
			c0.4-0.6,1.7-1.4,3.1-1.7c1.5-0.3,2.5-0.3,2.5-0.3S39.3,26.2,38.4,27.1z"/>
	</g>
</g>
</svg>
